<svg width="521" height="163" viewBox="0 0 521 163" fill="none" xmlns="http://www.w3.org/2000/svg">
<path d="M439.88 49C442.525 49 444.669 46.7614 444.669 44C444.669 41.2386 442.525 39 439.88 39C437.236 39 435.092 41.2386 435.092 44C435.092 46.7614 437.236 49 439.88 49Z" fill="black" fill-opacity="0.05"/>
<path d="M501.174 25C505.406 25 508.836 21.4183 508.836 17C508.836 12.5817 505.406 9 501.174 9C496.943 9 493.513 12.5817 493.513 17C493.513 21.4183 496.943 25 501.174 25Z" fill="#84CC16" fill-opacity="0.12"/>
<path d="M446.106 82C448.486 82 450.415 79.9853 450.415 77.5C450.415 75.0147 448.486 73 446.106 73C443.725 73 441.796 75.0147 441.796 77.5C441.796 79.9853 443.725 82 446.106 82Z" fill="#064E3B" fill-opacity="0.1"/>
<path d="M482.499 62C484.35 62 485.851 60.433 485.851 58.5C485.851 56.567 484.35 55 482.499 55C480.648 55 479.147 56.567 479.147 58.5C479.147 60.433 480.648 62 482.499 62Z" fill="#BEF264" fill-opacity="0.15"/>
<path d="M456.933 13.45L453.134 12.8734L451.436 9.27813C451.389 9.17969 451.313 9.10001 451.219 9.05157C450.982 8.92969 450.695 9.03126 450.577 9.27813L448.878 12.8734L445.079 13.45C444.974 13.4656 444.878 13.5172 444.805 13.5953C444.716 13.6905 444.667 13.8184 444.669 13.9512C444.671 14.0839 444.723 14.2105 444.814 14.3031L447.563 17.1016L446.913 21.0531C446.898 21.1451 446.908 21.2396 446.941 21.326C446.975 21.4125 447.031 21.4873 447.103 21.5422C447.176 21.597 447.261 21.6296 447.35 21.6362C447.44 21.6428 447.529 21.6233 447.608 21.5797L451.006 19.7141L454.404 21.5797C454.497 21.6313 454.605 21.6484 454.708 21.6297C454.969 21.5828 455.144 21.325 455.099 21.0531L454.449 17.1016L457.198 14.3031C457.273 14.2266 457.323 14.1266 457.337 14.0172C457.378 13.7438 457.195 13.4906 456.933 13.45V13.45Z" fill="black" fill-opacity="0.15"/>
<path d="M476.088 32.1128L474.365 31.839L473.595 30.1321C473.574 30.0853 473.54 30.0475 473.497 30.0245C473.39 29.9666 473.259 30.0148 473.206 30.1321L472.436 31.839L470.713 32.1128C470.666 32.1202 470.622 32.1447 470.589 32.1818C470.549 32.2269 470.527 32.2877 470.527 32.3507C470.528 32.4137 470.552 32.4738 470.593 32.5178L471.839 33.8465L471.545 35.7226C471.538 35.7662 471.542 35.8111 471.558 35.8521C471.573 35.8932 471.598 35.9287 471.631 35.9548C471.664 35.9808 471.703 35.9962 471.743 35.9994C471.783 36.0025 471.824 35.9933 471.86 35.9726L473.401 35.0868L474.941 35.9726C474.983 35.9971 475.032 36.0052 475.079 35.9963C475.197 35.9741 475.276 35.8517 475.256 35.7226L474.962 33.8465L476.208 32.5178C476.242 32.4815 476.264 32.434 476.271 32.3821C476.289 32.2522 476.207 32.1321 476.088 32.1128V32.1128Z" fill="black" fill-opacity="0.3"/>
<path d="M478.961 87.45L475.162 86.8734L473.463 83.2781C473.417 83.1797 473.34 83.1 473.246 83.0516C473.01 82.9297 472.722 83.0313 472.604 83.2781L470.906 86.8734L467.106 87.45C467.001 87.4656 466.906 87.5172 466.832 87.5953C466.744 87.6905 466.695 87.8184 466.697 87.9512C466.698 88.0839 466.75 88.2105 466.841 88.3031L469.59 91.1016L468.941 95.0531C468.926 95.1451 468.935 95.2396 468.969 95.326C469.003 95.4125 469.059 95.4873 469.131 95.5422C469.203 95.597 469.289 95.6296 469.378 95.6362C469.467 95.6428 469.556 95.6233 469.635 95.5797L473.034 93.7141L476.432 95.5797C476.525 95.6313 476.633 95.6484 476.736 95.6297C476.996 95.5828 477.171 95.325 477.126 95.0531L476.477 91.1016L479.226 88.3031C479.301 88.2266 479.35 88.1266 479.365 88.0172C479.405 87.7438 479.223 87.4906 478.961 87.45V87.45Z" fill="#84CC16" fill-opacity="0.15"/>
<path d="M81.1469 49.2789C78.5018 49.2677 76.3655 47.0204 76.3754 44.2595C76.3852 41.4986 78.5375 39.2695 81.1826 39.2807C83.8277 39.2919 85.9639 41.5392 85.9541 44.3001C85.9442 47.0611 83.792 49.2901 81.1469 49.2789Z" fill="#BEF264" fill-opacity="0.05"/>
<path d="M19.943 25.0296C15.7109 25.0116 12.2928 21.416 12.3086 16.9985C12.3244 12.581 15.768 9.0145 20.0001 9.03245C24.2323 9.05039 27.6503 12.646 27.6345 17.0635C27.6188 21.481 24.1752 25.0475 19.943 25.0296Z" fill="black" fill-opacity="0.12"/>
<path d="M74.7986 82.2533C72.418 82.2432 70.4954 80.2207 70.5042 77.7358C70.5131 75.251 72.4501 73.2448 74.8307 73.2549C77.2113 73.265 79.1339 75.2876 79.1251 77.7724C79.1162 80.2572 77.1792 82.2634 74.7986 82.2533Z" fill="#84CC16" fill-opacity="0.1"/>
<path d="M38.4799 62.1059C36.6283 62.098 35.1329 60.5249 35.1398 58.5923C35.1467 56.6596 36.6533 55.0993 38.5049 55.1071C40.3564 55.115 41.8518 56.6881 41.8449 58.6207C41.838 60.5534 40.3314 62.1137 38.4799 62.1059Z" fill="black" fill-opacity="0.15"/>
<path d="M64.2254 13.6606L68.0269 13.0995L69.7388 9.51114C69.7855 9.41289 69.8622 9.33351 69.9566 9.28546C70.1935 9.16454 70.4804 9.26727 70.5977 9.51463L72.2828 13.1168L76.0801 13.7088C76.1848 13.7249 76.2803 13.7768 76.3534 13.8552C76.4417 13.9507 76.49 14.0789 76.4879 14.2116C76.4857 14.3443 76.4331 14.4707 76.3418 14.563L73.5824 17.3502L74.2171 21.3044C74.232 21.3964 74.2219 21.4909 74.188 21.5772C74.154 21.6635 74.0976 21.7381 74.0251 21.7927C73.9527 21.8472 73.867 21.8794 73.7778 21.8857C73.6887 21.892 73.5997 21.872 73.5208 21.8282L70.1294 19.9487L66.724 21.8005C66.6311 21.8517 66.5233 21.8685 66.4201 21.8493C66.1599 21.8014 65.9858 21.5429 66.0317 21.2712L66.6958 17.3223L63.9573 14.5127C63.8828 14.4358 63.8338 14.3356 63.8192 14.2262C63.7798 13.9526 63.9633 13.7002 64.2254 13.6606V13.6606Z" fill="#064E3B" fill-opacity="0.15"/>
<path d="M45.0016 32.2454L46.7253 31.9787L47.5017 30.2749C47.5229 30.2282 47.5577 30.1905 47.6005 30.1677C47.7079 30.1103 47.838 30.159 47.8911 30.2764L48.6548 31.9865L50.3764 32.2673C50.4239 32.2749 50.4672 32.2995 50.5003 32.3368C50.5404 32.3821 50.5623 32.443 50.5613 32.506C50.5603 32.569 50.5365 32.629 50.495 32.6728L49.2437 33.9964L49.5312 35.8737C49.5379 35.9173 49.5334 35.9622 49.518 36.0032C49.5026 36.0442 49.477 36.0796 49.4441 36.1055C49.4112 36.1314 49.3724 36.1467 49.332 36.1497C49.2916 36.1527 49.2512 36.1432 49.2155 36.1224L47.678 35.2304L46.1339 36.1099C46.0917 36.1342 46.0428 36.1421 45.996 36.1331C45.8781 36.1103 45.7992 35.9876 45.82 35.8586L46.1214 33.9837L44.88 32.65C44.8463 32.6135 44.824 32.5659 44.8175 32.514C44.7996 32.3841 44.8828 32.2642 45.0016 32.2454V32.2454Z" fill="#84CC16" fill-opacity="0.3"/>
<path d="M41.9224 87.5706L45.724 87.0094L47.4358 83.421C47.4826 83.3228 47.5592 83.2434 47.6536 83.1954C47.8905 83.0745 48.1775 83.1772 48.2948 83.4245L49.9798 87.0267L53.7771 87.6187C53.8818 87.6348 53.9774 87.6867 54.0504 87.7651C54.1387 87.8606 54.1871 87.9888 54.1849 88.1215C54.1827 88.2543 54.1302 88.3806 54.0388 88.4729L51.2794 91.2602L51.9141 95.2143C51.929 95.3063 51.9189 95.4008 51.885 95.4871C51.8511 95.5734 51.7947 95.6481 51.7222 95.7026C51.6497 95.7571 51.564 95.7893 51.4749 95.7956C51.3857 95.8019 51.2967 95.782 51.2178 95.7381L47.8264 93.8587L44.4211 95.7105C44.3281 95.7616 44.2203 95.7784 44.1171 95.7592C43.8569 95.7113 43.6828 95.4528 43.7287 95.1811L44.3929 91.2322L41.6544 88.4226C41.5798 88.3457 41.5308 88.2455 41.5162 88.1361C41.4769 87.8625 41.6604 87.6101 41.9224 87.5706Z" fill="#BEF264" fill-opacity="0.15"/>
</svg>
