<svg width="80" height="80" viewBox="0 0 80 80" fill="none" xmlns="http://www.w3.org/2000/svg">
<g filter="url(#filter0_d)">
<path d="M56.5975 65.2723C42.784 66.8961 30.0015 64.119 18.25 56.9406C6.4985 49.7622 4.78572 39.3671 13.1116 25.7552C21.4376 12.1433 31.4907 7.50931 43.2712 11.8531C55.0515 16.197 63.671 25.7801 69.1297 40.6026C74.5884 55.425 70.411 63.6483 56.5975 65.2723Z" fill="#064E3B"/>
</g>
<path d="M54.1061 47.8942C47.148 53.2699 39.6068 55.9577 31.4827 55.9577C23.3586 55.9577 19.7667 50.9631 20.707 40.9736C21.6473 30.9841 25.8222 25.2276 33.2316 23.7038C40.6412 22.1799 47.7122 24.4869 54.4446 30.6244C61.1771 36.7619 61.0643 42.5186 54.1061 47.8942Z" stroke="#BEF264"/>
<path d="M58.1461 49.591C49.7463 56.0773 40.6427 59.3205 30.8354 59.3205C21.028 59.3205 16.6919 53.2938 17.827 41.2405C18.9621 29.1872 24.002 22.2411 32.9467 20.4025C41.8913 18.5639 50.4274 21.3474 58.5548 28.753C66.6822 36.1587 66.5459 43.1046 58.1461 49.591Z" stroke="#84CC16"/>
<g clip-path="url(#clip0)">
<path d="M50.5897 34.4583L33.2739 30.6035C33.1819 30.583 33.0834 30.5993 33.0088 30.6566C32.8455 30.7818 32.854 31.0142 32.9935 31.1349L36.5482 34.2087C36.5485 34.209 36.5487 34.2095 36.5487 34.21L36.0935 40.6881C36.0788 40.9128 36.312 41.0816 36.5206 40.9938L41.0889 39.0693C41.0894 39.069 41.09 39.0691 41.0905 39.0695L43.5434 41.2291C43.6604 41.332 43.8412 41.33 43.9558 41.2245L47.8353 37.654C47.9606 37.5387 47.9686 37.3437 47.8534 37.2184C47.7381 37.0931 47.5431 37.0851 47.4178 37.2004L43.7435 40.5822C43.7429 40.5827 43.7421 40.5827 43.7415 40.5822L38.8497 36.2754C38.8487 36.2746 38.8492 36.273 38.8505 36.2728L49.6288 35.1619C49.6302 35.1617 49.631 35.1635 49.6299 35.1645L48.5319 36.175C48.407 36.2899 48.3863 36.4867 48.4981 36.6144C48.6127 36.7453 48.8116 36.7553 48.9389 36.6383L50.7338 34.9864C50.745 34.976 50.7557 34.9644 50.7653 34.9524C50.9071 34.7759 50.8089 34.507 50.5897 34.4583ZM40.5741 38.6149C40.5749 38.6156 40.5747 38.617 40.5736 38.6174L36.9376 40.1491C36.9363 40.1496 36.9351 40.1485 36.9356 40.1472L38.248 36.5697C38.2483 36.5687 38.2496 36.5684 38.2504 36.5691L40.5741 38.6149ZM46.4645 34.8683L38.0828 35.7322C37.9672 35.7442 37.8651 35.8234 37.825 35.9326L36.8645 38.5509C36.8639 38.5525 36.8615 38.552 36.8617 38.5503L37.1532 34.4013C37.1533 34.4005 37.154 34.3999 37.1548 34.3999L46.4644 34.8653C46.4662 34.8653 46.4663 34.8681 46.4645 34.8683ZM46.8904 34.2693L36.9889 33.7744C36.9886 33.7744 36.9883 33.7742 36.988 33.774L34.326 31.4721C34.3248 31.4711 34.3258 31.4692 34.3273 31.4695L46.8908 34.2664C46.8926 34.2668 46.8922 34.2694 46.8904 34.2693Z" fill="#BEF264"/>
<path d="M33.4528 43.2811C33.3681 43.2635 33.2814 43.2478 33.1951 43.2344C33.0269 43.2082 32.8693 43.3233 32.8431 43.4916C32.8179 43.6531 32.9231 43.8048 33.0804 43.8398C33.0869 43.8413 33.0935 43.8425 33.1002 43.8436C33.1765 43.8555 33.2531 43.8693 33.3279 43.8848C33.4946 43.9193 33.6577 43.8121 33.6922 43.6454C33.7267 43.4788 33.6189 43.3145 33.4528 43.2811Z" fill="#BEF264"/>
<path d="M34.884 43.8224C34.7393 43.737 34.5848 43.6582 34.425 43.5883C34.2692 43.5199 34.0874 43.591 34.0191 43.747C33.9508 43.9029 34.0219 44.0847 34.1778 44.153C34.3151 44.2131 34.4474 44.2806 34.5709 44.3534C34.7157 44.4387 34.9076 44.3892 34.993 44.2445C35.0794 44.0978 35.0306 43.9088 34.884 43.8224Z" fill="#BEF264"/>
<path d="M31.1316 45.9096C31.1386 45.7672 31.1565 45.6227 31.1848 45.4801C31.2179 45.3131 31.109 45.151 30.9424 45.1177C30.7755 45.0846 30.6132 45.1931 30.5801 45.3601C30.546 45.5322 30.5244 45.7068 30.5159 45.8792C30.5076 46.0469 30.6407 46.194 30.8085 46.2022C30.9786 46.2106 31.1232 46.0796 31.1316 45.9096Z" fill="#BEF264"/>
<path d="M32.1858 48.0944C32.0687 48.021 31.9579 47.9352 31.8567 47.8392C31.7331 47.7222 31.5381 47.7274 31.4209 47.8509C31.3039 47.9745 31.3091 48.1696 31.4327 48.2867C31.5635 48.4107 31.7067 48.5217 31.8584 48.6168C32.0084 48.7108 32.2122 48.6556 32.2947 48.4994C32.3691 48.3586 32.3206 48.1789 32.1858 48.0944Z" fill="#BEF264"/>
<path d="M33.9159 42.1639C33.8416 42.0107 33.6572 41.9468 33.5041 42.0211C33.3538 42.094 33.2047 42.1738 33.0608 42.2584C32.914 42.3446 32.8649 42.5334 32.9511 42.6802C33.036 42.825 33.2281 42.875 33.3729 42.7899C33.5028 42.7136 33.6375 42.6416 33.7732 42.5758C33.9263 42.5014 33.9902 42.3171 33.9159 42.1639Z" fill="#BEF264"/>
<path d="M31.3689 47.1591C31.3094 47.0324 31.26 46.8982 31.2222 46.7602C31.1772 46.5961 31.0075 46.4995 30.8434 46.5445C30.6793 46.5896 30.5827 46.7591 30.6277 46.9233C30.6748 47.0952 30.7365 47.2627 30.811 47.4212C30.888 47.5852 31.0967 47.6476 31.2513 47.5529C31.3834 47.4719 31.4348 47.2992 31.3689 47.1591Z" fill="#BEF264"/>
<path d="M31.6292 43.8626C31.4909 43.7635 31.2983 43.7953 31.1991 43.9336C31.0898 44.0861 30.9942 44.2389 30.9225 44.3752C30.8434 44.5259 30.9013 44.7123 31.052 44.7915C31.0767 44.8045 31.1025 44.8138 31.1285 44.8196C31.261 44.8491 31.4021 44.7879 31.4682 44.662C31.5091 44.5841 31.5826 44.4568 31.7002 44.2927C31.7994 44.1543 31.7676 43.9618 31.6292 43.8626Z" fill="#BEF264"/>
<path d="M32.671 42.8759C32.5627 42.7445 32.3685 42.7259 32.2371 42.8342C32.1078 42.9409 31.9815 43.0538 31.862 43.1698C31.7397 43.2883 31.7367 43.4835 31.8553 43.6057C31.9723 43.7263 32.1706 43.7292 32.2911 43.6124C32.3988 43.5079 32.5126 43.4061 32.6293 43.3099C32.7607 43.2016 32.7793 43.0073 32.671 42.8759Z" fill="#BEF264"/>
<path d="M36.0235 44.9043C35.9327 44.7554 35.824 44.6111 35.7004 44.4757C35.5858 44.3498 35.3908 44.3408 35.265 44.4556C35.1392 44.5703 35.1302 44.7652 35.2449 44.891C35.342 44.9975 35.4269 45.1099 35.4972 45.2253C35.5847 45.3687 35.7774 45.4154 35.9208 45.3279C36.0662 45.2393 36.1121 45.0496 36.0235 44.9043Z" fill="#BEF264"/>
<path d="M33.6951 48.7368C33.6965 48.5665 33.5597 48.4276 33.3893 48.4261C33.258 48.4251 33.1227 48.4136 32.9867 48.392L32.9631 48.3881C32.7953 48.3594 32.636 48.4722 32.6073 48.64C32.5794 48.8027 32.6845 48.9573 32.8438 48.9928C32.8488 48.9939 32.854 48.9949 32.8591 48.9958L32.8901 49.0009C33.056 49.0274 33.2223 49.0414 33.3845 49.0427C33.5547 49.0439 33.6938 48.9071 33.6951 48.7368Z" fill="#BEF264"/>
<path d="M36.3499 46.4849C36.3762 46.2993 36.3821 46.1156 36.3674 45.9387C36.3533 45.769 36.2043 45.6429 36.0347 45.6571C35.865 45.6712 35.739 45.8202 35.7531 45.9899C35.764 46.1208 35.7594 46.2582 35.7396 46.3982C35.7159 46.5645 35.8351 46.7231 36.0014 46.7467C36.1677 46.7703 36.3263 46.6512 36.3499 46.4849Z" fill="#BEF264"/>
<path d="M35.8866 47.0728C35.7376 46.9903 35.5501 47.044 35.4675 47.1929C35.3988 47.3169 35.3189 47.4358 35.2303 47.5462C35.1237 47.679 35.145 47.873 35.2778 47.9795C35.4089 48.0848 35.606 48.063 35.7111 47.932C35.8216 47.7944 35.921 47.6462 36.0067 47.4918C36.0893 47.3429 36.0355 47.1553 35.8866 47.0728Z" fill="#BEF264"/>
<path d="M35.2918 41.7606C35.2546 41.5944 35.0898 41.4899 34.9237 41.5271C34.7606 41.5636 34.5974 41.6066 34.4388 41.6549C34.3121 41.6935 34.2223 41.8127 34.2204 41.9451C34.2182 42.0897 34.3208 42.2194 34.4619 42.2508C34.5121 42.262 34.5657 42.2607 34.6184 42.2447C34.7623 42.2008 34.9103 42.1618 35.0583 42.1287C35.2244 42.0915 35.329 41.9267 35.2918 41.7606Z" fill="#BEF264"/>
<path d="M35.0194 48.2082C34.9317 48.0622 34.7425 48.0149 34.5965 48.1025C34.476 48.1748 34.3486 48.2359 34.2176 48.2844C34.0579 48.3435 33.9764 48.5208 34.0354 48.6804C34.0936 48.8379 34.2739 48.9209 34.4315 48.8626C34.5982 48.8009 34.7605 48.723 34.9137 48.6311C35.0597 48.5435 35.107 48.3541 35.0194 48.2082Z" fill="#BEF264"/>
<path d="M36.4945 41.6594C36.4873 41.4894 36.3436 41.3574 36.1736 41.3644C36.0876 41.3681 36.0011 41.3732 35.9167 41.3796C35.7557 41.392 35.6289 41.532 35.6322 41.6934C35.6358 41.868 35.7898 42.0076 35.964 41.9943C36.0414 41.9883 36.1206 41.9836 36.1995 41.9803C36.3695 41.9732 36.5016 41.8295 36.4945 41.6594Z" fill="#BEF264"/>
<path d="M27.459 50.3633C27.4392 50.2879 27.4207 50.2113 27.4039 50.1356C27.3673 49.9694 27.2027 49.8644 27.0366 49.901C26.8704 49.9377 26.7653 50.1022 26.802 50.2684C26.8205 50.3522 26.841 50.4369 26.8629 50.5201C26.9056 50.6825 27.0768 50.7825 27.2394 50.7398C27.404 50.6965 27.5023 50.5279 27.459 50.3633Z" fill="#BEF264"/>
<path d="M27.2834 49.2707C27.275 49.1255 27.2726 48.979 27.2764 48.8351C27.2809 48.6649 27.1467 48.5234 26.9764 48.5189C26.8062 48.5144 26.6647 48.6487 26.6602 48.8189C26.6559 48.98 26.6585 49.1439 26.6679 49.3062C26.6776 49.4739 26.8257 49.606 26.9934 49.5962C27.1634 49.5864 27.2932 49.4406 27.2834 49.2707Z" fill="#BEF264"/>
<path d="M27.2666 47.1663C27.1034 47.1192 26.9321 47.2128 26.8846 47.3763C26.8508 47.4925 26.8204 47.6113 26.7941 47.7292C26.77 47.8374 26.7427 47.9418 26.7942 48.0465C26.8361 48.1315 26.917 48.1945 27.0103 48.2127C27.1028 48.2312 27.2002 48.2056 27.2717 48.1442C27.3583 48.0698 27.3723 47.9688 27.3959 47.8631C27.4193 47.7579 27.4464 47.652 27.4766 47.5483C27.5241 47.3848 27.4301 47.2138 27.2666 47.1663Z" fill="#BEF264"/>
<path d="M27.8851 45.9288C27.7382 45.8425 27.5495 45.8917 27.4632 46.0384C27.3812 46.1781 27.304 46.3225 27.2339 46.4676C27.1599 46.6208 27.2241 46.8051 27.3774 46.8791C27.5287 46.9522 27.716 46.8868 27.789 46.7356C27.8519 46.6056 27.9211 46.4761 27.9947 46.3508C28.0809 46.2039 28.0319 46.015 27.8851 45.9288Z" fill="#BEF264"/>
<path d="M29.9086 44.0732C29.8205 43.9274 29.6312 43.8805 29.4854 43.9685C29.448 43.9909 29.4109 44.014 29.3738 44.0376C29.2744 44.1008 29.1749 44.1689 29.0781 44.24C28.941 44.3407 28.9114 44.5336 29.0121 44.6708C29.1115 44.8062 29.3076 44.8363 29.443 44.7369C29.5287 44.6739 29.6167 44.6137 29.7045 44.5578C29.7375 44.5369 29.7706 44.5164 29.8038 44.4963C29.9496 44.4083 29.9965 44.2189 29.9086 44.0732Z" fill="#BEF264"/>
<path d="M28.7808 44.8741C28.6587 44.7556 28.4635 44.7585 28.345 44.8807C28.2327 44.9963 28.1236 45.1182 28.0206 45.2428C27.9121 45.374 27.9306 45.5683 28.0619 45.6767C28.1915 45.7838 28.3888 45.7649 28.4958 45.6354C28.5884 45.5234 28.6865 45.4139 28.7873 45.31C28.9059 45.1878 28.903 44.9926 28.7808 44.8741Z" fill="#BEF264"/>
<path d="M30.9983 43.6472C30.9448 43.4856 30.7705 43.3979 30.6089 43.4514C30.5267 43.4785 30.444 43.5081 30.363 43.5392C30.2041 43.6003 30.1248 43.7786 30.1858 43.9375C30.246 44.0942 30.4272 44.1749 30.5841 44.1146C30.656 44.087 30.7294 44.0608 30.8024 44.0366C30.9641 43.9832 31.0518 43.8088 30.9983 43.6472Z" fill="#BEF264"/>
</g>
<defs>
<filter id="filter0_d" x="3.93262" y="10.2769" width="71.5163" height="63.4448" filterUnits="userSpaceOnUse" color-interpolation-filters="sRGB">
<feFlood flood-opacity="0" result="BackgroundImageFix"/>
<feColorMatrix in="SourceAlpha" type="matrix" values="0 0 0 0 0 0 0 0 0 0 0 0 0 0 0 0 0 0 127 0"/>
<feOffset dy="4"/>
<feGaussianBlur stdDeviation="2"/>
<feColorMatrix type="matrix" values="0 0 0 0 0 0 0 0 0 0 0 0 0 0 0 0 0 0 0.25 0"/>
<feBlend mode="normal" in2="BackgroundImageFix" result="effect1_dropShadow"/>
<feBlend mode="normal" in="SourceGraphic" in2="effect1_dropShadow" result="shape"/>
</filter>
<clipPath id="clip0">
<rect width="21" height="21" fill="white" transform="translate(30.5632 30) rotate(12.5503)"/>
</clipPath>
</defs>
</svg>
